<mxfile host="app.diagrams.net" agent="Mozilla/5.0 (X11; Linux x86_64; rv:132.0) Gecko/20100101 Firefox/132.0" version="25.0.3">
  <diagram name="Page-1" id="ao7PmfcHwjKbxnxRAH8E">
    <mxGraphModel dx="1434" dy="778" grid="1" gridSize="10" guides="1" tooltips="1" connect="1" arrows="1" fold="1" page="1" pageScale="1" pageWidth="850" pageHeight="1100" math="0" shadow="0">
      <root>
        <mxCell id="0" />
        <mxCell id="1" parent="0" />
        <mxCell id="Q538PQ-l56nIkoy9aGrn-4" value="" style="rounded=0;whiteSpace=wrap;html=1;" parent="1" vertex="1">
          <mxGeometry x="110" y="190" width="680" height="260" as="geometry" />
        </mxCell>
        <mxCell id="Q538PQ-l56nIkoy9aGrn-18" value="&lt;div&gt;update&lt;/div&gt;" style="edgeStyle=orthogonalEdgeStyle;rounded=0;orthogonalLoop=1;jettySize=auto;html=1;exitX=0.5;exitY=1;exitDx=0;exitDy=0;entryX=0;entryY=0.5;entryDx=0;entryDy=0;" parent="1" source="Q538PQ-l56nIkoy9aGrn-1" target="Q538PQ-l56nIkoy9aGrn-16" edge="1">
          <mxGeometry relative="1" as="geometry" />
        </mxCell>
        <mxCell id="Q538PQ-l56nIkoy9aGrn-1" value="tab_infos_listener" style="rounded=0;whiteSpace=wrap;html=1;" parent="1" vertex="1">
          <mxGeometry x="130" y="250" width="150" height="80" as="geometry" />
        </mxCell>
        <mxCell id="Q538PQ-l56nIkoy9aGrn-5" value="tab_killer" style="rounded=0;whiteSpace=wrap;html=1;" parent="1" vertex="1">
          <mxGeometry x="332.5" y="250" width="150" height="80" as="geometry" />
        </mxCell>
        <mxCell id="Q538PQ-l56nIkoy9aGrn-6" value="&lt;div&gt;mini_tab_infos_server&lt;/div&gt;" style="rounded=0;whiteSpace=wrap;html=1;" parent="1" vertex="1">
          <mxGeometry x="560" y="260" width="150" height="80" as="geometry" />
        </mxCell>
        <mxCell id="Q538PQ-l56nIkoy9aGrn-7" value="" style="rounded=0;whiteSpace=wrap;html=1;align=center;" parent="1" vertex="1">
          <mxGeometry x="120" y="10" width="220" height="150" as="geometry" />
        </mxCell>
        <mxCell id="Q538PQ-l56nIkoy9aGrn-15" style="edgeStyle=orthogonalEdgeStyle;rounded=0;orthogonalLoop=1;jettySize=auto;html=1;" parent="1" source="Q538PQ-l56nIkoy9aGrn-9" target="Q538PQ-l56nIkoy9aGrn-1" edge="1">
          <mxGeometry relative="1" as="geometry">
            <Array as="points">
              <mxPoint x="205" y="170" />
              <mxPoint x="205" y="170" />
            </Array>
          </mxGeometry>
        </mxCell>
        <mxCell id="Q538PQ-l56nIkoy9aGrn-29" value="send json on&lt;br&gt;ws://127.0.0.1:8080" style="edgeLabel;html=1;align=center;verticalAlign=middle;resizable=0;points=[];" parent="Q538PQ-l56nIkoy9aGrn-15" vertex="1" connectable="0">
          <mxGeometry x="-0.0366" y="3" relative="1" as="geometry">
            <mxPoint as="offset" />
          </mxGeometry>
        </mxCell>
        <mxCell id="Q538PQ-l56nIkoy9aGrn-9" value="tab-infos" style="rounded=0;whiteSpace=wrap;html=1;" parent="1" vertex="1">
          <mxGeometry x="130" y="60" width="160" height="90" as="geometry" />
        </mxCell>
        <mxCell id="Q538PQ-l56nIkoy9aGrn-8" value="" style="shape=image;verticalLabelPosition=bottom;labelBackgroundColor=default;verticalAlign=top;aspect=fixed;imageAspect=0;image=data:image/png,iVBORw0KGgoAAAANSUhEUgAABBwAAAQcCAMAAAABRXg3AAAC1lBMVEXw208yMzDz43j8+eOhlUK+r0bv2k7u2U7s104zNDA6OjE0NTDt2E43NzDt2U41NjDn003ey0xMSjTo1E3q1k40NDB+djzVw0o2NjBDQjLk0E03ODDgzUzr107Uwkrq1U48PDHp1U1mYTjjz0zTwUo7OzGAeDxGRTPYxkvdyktdWTfEtEfPvkk9PDFSTzV7dDxeWjfm0k27rEbiz0xAQDKYjUBGRDNLSTRAPzLYxUvGtkjfzEw4ODE5OTFOTDTl0U3cyUujl0JBQDJNSzSJgD5KSDQ9PTF9dTzax0uMgz5PTDTKuUi5qkanm0N6cjs+PjKDej2xo0RgXDd5cjtXUzY/PjLLuknXxUrRv0pJSDOPhj+ypEXk0U1PTTTMu0lEQzO3qEWKgT5oYziGfj1VUTVYVDakl0KPhT9aVzbbyEuDez1YVTaVikBxazqpnUPQv0mEfD2+rkZiXTfKuki1pkWsn0PAsEdpYziWi0CekkFQTjRjXzirnkPOvUm6q0bSwEquoUThzkxbVzZ4cDtgWzdHRjNCQTKvoUSHfj2mmkNsZjnBsUefk0GzpUWpnEPFtUimmUKkmEJrZTmUiUBcWDa4qUW9rka8rUaaj0GilkKRhz+Qhj+Vi0CBeT1RTjVvaTqNhD7hzUyMgj6ek0F3cDtsZzlVUjXWxEqOhD9TUDXHtkjMvEluaDl8dDxzbDqXjEB1bjpUUTWGfT1aVjZWUzWTiT9qZTm0pkWwo0SglEHSwUqSiD+bkEGvokTZx0tZVTabj0GShz9lYDhwajq4qkZFRDPbyUt0bTpfWzeqnUOckUG1p0WFfD1JRzNkXziLgj6om0PJuEh/dzy/sEd1bjvDs0dIRjOsn0SypESIfz6toETNvEl4cTudkUFybDq2qEV7cztjXjhvaTnIuEhyazp2bzttZznCskelmUKCej3Ht0hpZDnBskdnYjhhXTeZjkD9+ur///8nV2MOAAAk40lEQVR4XmL4iAWMglEwCkYBgJ06NmEQCgAoGEiKtELQBcRVRIQ0li6hM6RJasEmjQ7gDn8ES62t3CJ1wAECueveAu90AOD8VQDmAJgDYA6AOQDmAJgDYA6AOQDmAJgDYA6AOQCYA2AOgDkA5gCYA2AOgDkA5gCYA2AOgDkA5gCYA4A5AOYAmANgDoA5AOYAmANgDoA5AOYAmANgDgDmAJgDYA6AOQDmAJgDYA6AOQDmAJgDYA6AOQCYA2AOgDkA5gCYA2AOgDkA5gCYA2AOgDkA5gCYA4A5AOYAmANgDoA5AOYAmANgDoA5AOYAmANgDgDmAJgDYA6AOQDmAJgDYA6AOQDmAJgDYA6AOQCYA2AOgDkA5gCYA2AOgDkA5gCYA2AOgDkA5gBgDoA5AOYAmANgDoA5AOYAmANgDoA5AOYAmANgDgDmAJgDYA6AOQDmAJgDYA6AOQDmAJgDYA6AOQCYA2AOgDkA5gCYA2AOgDkA5gCYA2AOgDkA5gBgDoA5AOYAmANgDoA5AOYAmANgDoA5AOYAmANgDgDmAJgDYA6AOQDmAJgDYA6AOQDmAJgDYA6AOQCYA2AOgDkA5gCYA2AOgDkA5gCYA2AOgDkA5gBgDoA5AOYAmANgDoA5AOYAmANgDoA5AOYAmAOAOQDmAJgDYA6AOQDmAJgDYA6AOQDmAJgDYA6AOQCYA2AOgDkA5gCYA2AOgDkA5gCYA2AOgDkA5gBgDoA5AOYAmANgDoA5AOYAmANgDoA5AOYAmAOAOQDmAJgDYA6AOQDmAJgDYA6AOQDmAJgDYA6AOQCYA2AOgDkA5gCYA2AOgDkA5gCYA2AOgDkA5gBgDoA5AEfMAfjFOQDmAJgDYA6AOQCYA2AOgDkA5gCYA2AOgDkA5gCYA2AOgDkA5gBgDoA5AOYAmANgDoA5AOYAmANgDoA5AOYAmAOAOQDmAJgDYA6AOQDmAJgDYA6AOQDmAJgDYA6AOQCYA2AOgDkA5gCYA2AOgDkA5gCYA2AOgDkA5gBgDoA5AOYAmANgDoA5AOYAmANgDoA5AOYAmAOAOQDmAJgDYA6AOQDmAJgDYA6AOQDmAJgDYA6AOQCYA2AOgDkA5gCYA2AOgDkA5gCYA2AOgDkA5gBgDoA5AOYAmANgDoA5AOYAmANgDoA5AOYAmAOAOQDmAJgDYA6AOQDmAJgDYA6AOQDmAJgDYA4A5gCYA2AOgDkA5gCYA2AOgDkA5gCYA2AOgDkA5gBgDoA5AOYAmANgDoA5AOYAmANgDoA5AOYAmAOAOQDmAJgDYA6AOQDmAJgDYA6AOQDmAJgDYA4A5gCYA2AOgDkA5gCYA2AOgDkA5gCYA2AOgDkA5gBgDoA5AOYAmANgDoA5AOYAmANgDoA5AOYAmAOAOQDmAJgDYA6AOQDmAJgDYA6AOQDmAJgDYA4A5gCYA2AOgDkA5gCYA2AOgDkA5gCYA2AOgDkAmANgDoA5AOYAmANgDoA5AOYAmANgDoA5AOYAmAOAOQDmAJgDYA6AOQDmAJgDYA6AOQDmAJgDYA7AdUzKtn6F7l2sTZZXj/sUZ/tz6MJlXvotjW7/NAfgw959v1lZnXsYf77XhdN7AabQQXrvRaoIIgY1YAVBsIQoEqVoBNRYUFREEEQ9KorYGxpRNJbYy0nsmkSNOcYUU8+/cK4cJUJmgD0z71p7rXfuz1+w55f7mmfttZ5d/+D667Z//s4d/XVQnSs2X/PIyV9f3G8ucUgxYPD7n9760YtHqDk6z16y/Ya/30UcUgYon3nOKxVqubVfHjPpqyrikAZAp2t3XVCjJJXeO/CWU3OJQ8SA2i2n9WkvJzp33bWyE3EIHT6Uc20sNrkPnvxivpyqe2f48TnEIWQ4hDj8h7tWfDRMXgzbcexg4gDiEIexbY7Ll0ft/9GmnDiAOITurjO/rJZ31e/c0I04gDiEq8NVXQuVJaWb1ucRBxCHIPV7YpSyau3VS4kDiENoytZtVgAG7S4iDgEBcZi4fZYCMeLGeuIQCBCHhy4vVUDqPriPOAQAxGHIKoWmeuca4pBlIA43bVaQ/rSGOGQRiMPKNxWq/Dc6EocsAXHoe75CVvhIOXHIAhCH0a8odAXndCIOnoE4lG2vUwR++Txx8AnEIffoGkViVUfi4A2Iw5qfKh7FL1URBy9AHKruLFVUZvyZOHgA4vD38YpN/qJOxMExEIfBbRWjGQ8SB6dAHMaMVJyqzyohDs6AOJTsKlS0Bk0nDo6AOPQapJjNWU4cnABxOLa/IveLIuKQOBCH3NMUv+PGEoeEgTgMfVlp0PMr4pAoEIdTpyodit8iDgkCcbhqnFLjLOKQGBCH4UqTnVXEIREgDrm3K10GDSUOCQBx6PInpc0drxOHFgNx+Mlmpc9JHYlDC4E4jH1AabT2VOLQIiAO5RcpnfqPIQ4tAOIwcYbSqvMY4tBsIA7TK5RenTcQh2YCcZg4UmnWoy9xaBYQh24DlG6dlxGHZgBxqOyjtJv8LHFoMhCHvIVKv54vEIcmAnHI+UitwZSxxKFpQByOVOvwYiVxaAoQh0/VWlyTSxwyB+LwVZ1ajb8Qh4yBOEx8Ta3Iz4lDhkAcupyt1iT/VeKQGRCHaWpd+j9LHDIB4nCpWpsZc4nDwYE4tOuhVmdhLnE4GBCHDrPVCt1PHA4GxOGHapWGEIcDA3HYqtZp2GLicCAgDoM/USu1OY84HACIQ1u1WlcTh/0DcThPrdhW4rA/IA5lJ6kVm38XcdgPEIcfqVW7hzg0DsShX6Fat0nEoVEgDuerlTusHXFoBIjDbrV6b+YQhwZAHCqvFH5MHBoAcbhfDTFYEAcQh/LDBOmKHOKwLxCHY4SGGSYOIA4vFAuS1L+cOOwNxGGgvoE/EIe9gDh0LNS3MJM4fAfE4SPtgamVxGEPEIcXCvVvuJM47AHi8IS+g+L7iMM3QBxqe6ghnmcSBxCHx4SG62aJA4hDh9e0D8zLIw4gDma2QvvCA4uJA4iDmR2nvaH4pTwjDiAOZt21Nwy6xP6FOIA4HK7voMczOfYvxAHEIW+t/g2bFts3iAOIw7HaA2svtT2IA4jDU/oWLh9qexAHEIfa9squ/k8+1Xb7Y21uOPfcjdfdfM72gZt+MLVY2TDyJvsOcQBxuF7Zc+W24dfWW0O5J8x8u+2LpfKpelGl7YU4gDhcoOwoeGV1bzugLtfetrBOnpz+vu2NOIA41JZmpQwDZ1ZZJsp+vWOO3Ks7p8j2QRxAHN6TfzN+PNcyV/T0wny5dUV3+w/EAcRhk3y7bGuONVGvOyfLnf6TGnwg4gDi0KFAfl30tDVH2XBnebhnojVAHEAcDpFX/c8ssWYqGz5KDtQca0YcQByy/a6i62JrgZ88osR9r5s1hjiAODwufwo2WguNeVKJqjjEGkUcQBx6y5+T1liLldxYqMRU/6aLNY44gDicK28G1VsSxkxVQp5cZvtDHEAcpsmXNzpYMiY8qiSMe6zI9os4gDgMkCdflFhihuerxf7Z0faPOIA4zM2XHw8XWYKeLlDLHLExxw6AOIA4DJEfXfMsUctGqCV+39sOiDiAOPyXvJjazRI2eqqabf4pdhDEAcShq3wY95AlbnqFmmlarR0McQBxGCYfzjUHJs5Qc0xZaQdFHEAcyuXDJnOifIqarPC0TnZwxAHE4SZ5UDDd3LivRk00+1TLBHEAcXhbHrxtrizroaYYN7zEMkIcQBwGyr2LSsyZraXK3JftLEPEAcThB3JvhTn0njI1a51ljDiAOPSQcxUl5tIiZeaVcssYcQBx+IncO9qcKnlHGRix3JqAOIA4LJNzs6rMrfqeOqi2c60piAOIw3o519Zc21CoAxv/ZzPiAOIQ2jeZfc2523QghUd2siYiDiAOP5JrFeZe7irt39mfWZMRBxCHP8m1RebB67O0H4fdXGJNRxxAHH4q17aaD5+qcS+fYM1BHEAcKuRYYaV5sU2NmHO9NQ9xAHGYJcfOMD/KR6mBL8Za8xAHEIdcuTbNPFmt/9BzgRlxAHEI9oLk3ebLy9rHoYOt2YgDiEN3uTbEfGlXp+/M62stQBxAHMbItWfNm59pj9L7q6wliAOIw3lyrcy8qarQN37az1qGOIA4zJRj7c2jLZKkgrdzrYWIA4jDcjlWYz4tlNR1tLUYcQBx2C3HPjGfTiwc9ZYlgDiAOKyQYxXm1Yp6SwJxAHE4Wo6dZDEiDiAOk+TYCIsRcQBx2CjHhlmMiAOIw3tyrNRiRBxAHFbLtUqLEHEAcbhKrvWyCBEHEIdT5FpfixBxAHH4b7l2qUWJOIC3Fa69ZBEiDiAOH8q1NyxCxAHEYZlcu8giRBxAHNrJtfzBFh/iAOJQL+dusvgQBxCHDnLuNIsPcQBxsGK5NtsiRBxAHNaqEdyRJA4gDjPk3M0WH+IA4nCcnHvA4kMcQBwelXt/tegQBxCHJ+TeTosOcQBxGC73CkdbbIgDiMNqeTDQYkMcQBzOkwfVl1hkiAOIw7PyoatFhjiAOHTIlw+7LS7EAcTBTpIPa+stLsQBxOEdeXGPxYU4gDh8ID+es6gQBxCHm+VH4bUWE+IA4rBcnszpbhEhDiAOHeXLyN4WD+IA4pBbIF/uuMuiQRxAHGyzvHl8rEWDOIA4fCB/Ziy2WBAHEIdJ8qjnZxYJ4gDiMEY+db7Y4kAcQBzKquVT/mMWBeIA4mBnyK9tcy0GxAHE4YfybORXFgHiAOKwW74V7iqx4BEHEIeJ8u+ySyx0xAHEwabKv+LbiixwxAHEYYey4fENFjbiAOLwlrJj2l0WMuIA4jBWWTLr7iILF3EAcbDZypY7XrVwEQcQhyOVPauWWaiIA4jDx8qmLzpamIgDiENRf2VT4bQXLETEAcTBdii72t/+ugWIOIA4/E7ZVnzodAsOcQBxqOqvrGs/rR1xCA2Ig+1QAKp39iMOgQFxWKAwPPUxcQgKiEOHIxSIzU/nEodwgDjYoQrGlFu6EIdggDgcr4BMPrmcOAQCxMGeVEiKv7eGOIQBxKGNArNqQQ5xCACIQ22dQlNx92DikHUgDva5wtPjhx2JQ7aBODykIC28OIc4ZBWIg61SmMZnd7ogDiAOr6oRTBfEAcQhZ54aYrogDiAOtlGNYLogDiAOHa5UQ0wXxAHEwSapEUwXxAHEIe8kNcR0QRxAHOxrRaDHMR2Jg2cgDkUjFYULhuQQB59AHOxTReKiSZXEwSMQB7tMsZh1+HTi4A+Iw4OKR/WSMcTBFxAH26mY9Dkllzj4AeIwfZyiMvK6MuLgA4iD3ajIzHp3InHwAMQhb4Bi037gs8QBxMG9DfmKTv7DDxIHEAfnbleMjptJHBwDcZgwQlF6/Plc4gDi4NRMRWrG9UXEAcSBwaIxJ02qIg7ugDh0madojfhtF+IA4uDMslLFq+a3nYgDiIMrFypmr11XRRzcAHHIWaiojWjTgTiAODgx9JeK25XrSogDiIML7xcrcvOOzSEOIA4OnKnonb2VOIA4OPA/it/5fyUOiQNxyPunUuDR0cQBxCFpQ6coBYp/U0scQBwS1nGO0mDUj/OIA4hDslaWKhWmLCAOIA7Juipf6bCwO3EAcUjULUqJ9ocPJg4gDkk6R2kx/9wc4gDikKBFSo03lxKH5IA45LRVapQe2YU4gDgkJucDpcfIi4kDiENicg5VivyhnDiAOLBUsjFzVhMHEIfEPKE0eWoicQBxSMqNSpP+64gDiENSzsxXmnSdSBxAHBLy62KlyZxfEwcQh4QccoRS5fuDiQOIQzIuGalUmdqXOIA4JKO+j1Kl+tZc4gDikIiqnUqXVeXEAcQhGbvylSo1K4kDiEMyZs5SqlTvyiUOIA6JaPe40qVrN+IA4pCIyjeULhVLiQOIQzKeKVaq9FhOHEAcknHqeKXLrTnEAcQhEWU7lC7buhAHEIdkXF+gVLmsnjiAOCTjvj5KlYqOxAHEIRm5F7ZXmozqSxxAHBLy0AClSd0pxAHEISFV7xYqRarPJQ4gDkk5/l6lyTPEAcQhKUW3FStFbiMOIA6JeXaQUmQ7cQBxSEzOumHUgTiAODRm6DSlx63EAcQhQWPuVWpcSBxAHBJU8swopcVzxAHEIUndjilUSnxNHEAcErW0q9KhegtxAHFI1oKLlAoFfyUOIA7JKtk4X2kwuR1xAHFIWNnPeigFKuqJA4hD0sb+pb3id0UecQBxSFyv71UreocSBxAHB7o/quhtJA4gDi58do8i174vcQBxcOLU3ytuNb2JA4iDG2uW5Ctmq3KJA4iDI0vfqFbEziEOIA7OtGtbrGgVbiAOIA7u9D68h2L1y1riAOLgUO2NaxWpL4gDiINTnTbOU5xOIQ4gDm7lLDhOMaoZShxAHFw76o1SxeePxAHEwb3Xjxym6CwgDiAOHnS64XFFZkQZcQBx8OLDe/IVlcOJA4iDJ6OvnqWItO9IHEAcfKm8ZYDisZA4gDh4dN41+YrFAuIA4uDTCVcfoThU5BEHEAemi4zLTBxAHJgu5nchDiAO3p2wKILpYjhxAHHIgrJb7lDgRk0gDiAOWXFT6NPFrcShMSAOTBdHlBEHEIdsKWszXuF6jjiAOGRPzqsvK1SfFBEHEIds6jewTmFaQRxAHLKr/mc1CtHpxAHEIds6XH+6AnQecQBxCKC2f1NwXiEOIA4hOHFancJSOpY4gDgEof7kUQrKcOIA4hCIymdGKiBTcogDiEMoSq6arXB8SBxAHAKy9UuFYgdxAHEIyphNCkPnTsQBxCEsa5bkKwTriQOIQ2iW7gwhD48SBxCH8FzyhbKuoJI4gDgEqN/DyrbdQcYBxAEPnq/s+iLQOIA4YMgDyqZZJYHGAcQBueteUxb1DTYOIA4oe7dYWXN/wHEAcUC7vylbzgg6DiAOWN9TWTI26DiAOKDsGGXHisDjAOKAj8crG9qGHgcQB3S5XVkwIPw4gDhgZo386xZ+HEAcUP5PebclgjiAOKDkSPn2bhRxAHHA7sPk16A44gDigOPny6uCnDjiAOKAXvPkVcdI4gDigKFnyKdjY4kDiAPm/kAe3RlNHEAcMGG2/HkqnjiAOKB+vLzpGVEcQBwwerK8qY0oDiAO+Li9fHk/pjiAOKCNfLk0qjiAOGCbPNkVVRxAHFA7Qn58P644gDjgd/JjUGRxAHHAEnlRE1kcQBzQq05edIosDiAOOE1ejI4sDiAOGFogHzbEFgcQB/xGPqyPLQ4gDphYKA/aRBcHEAc8LA/ujy4OIA64WB4MjC4OIA4oGiX3NsUXBxAHDJR7x8UXBxAHLJB79xKHjGFrKHHAhEI5NzKkOIBjsDMtI7hMzg0LKQ7gf9l1FoCjrrLgPSHnSolDxrBczr1lWVf+iApGW+hWh/Tyijjgee+7yfzrMLyzpH9Y6PrJvbHEIVM42vfvLPm3ZYr+368scFVybzFxyBSekXPLLZtO7KpvTR5qgesp504gDpnCcDn3qmVP7Y8KHWxQdOVNOdedOGQKZ8m5rZYtuZOGaW/nsYV6KXHIFG6Xcx9allx7uvb1yQQLWls591CcccBg8+9ROdfXsqLXK2rgcwvadjl3VIxxQPnnFxWZd13lXD/LgsqT69SIpy1kL8m5MfHFASV395euM+9my7np5t+lI9SoyWMtYBfKub7RxQEb7pWkUd3Mtxo5N9d8e7+P9uceC9jP5dyDkcUBd03TN35hnhXly7lc86t8oA7gPQvXY3Lu/ajigNwz5+hbpd3Nr8VyrrN51eHmzjqQgkssWLfKueNjigOOOlvf+Zv5tUHO9TSftlToIB7o0prX0/eLJw7odnu+9jbTvHpLzg3we1f64AZaqC6Xc+1iiQNyzp2sfc3IM59OlnN9zJfaJwqVidUWqK5yrnckccBnfdTAzebTTjl3gbejm2FqIK5jh/FyrjaKOGDComo11HmsefSknBtoXqx8XBkbUGkhKiqUc3kxxAGXzlejLjd/iorl3P3e7kpnbluOBehEOXeYhR8HnHi+9ufP6do91MbfXenMnWUBul7OvRZ8HFB2eKn2a0CR+fIrubfe/V/RU012lYXnUDl3R+hxwPor1Rj/Z5LHyL0x5tZRfdQM446y4MyTc33CjgM6dtWBFbxunpwh93r5vCuduRG9LTDT5d7DIccBXU4u1sFcY35UFsq9Kqd7pXuouc4us7C0kXsfBBwHbJmqDDxvXgyRe3Pc7pVugVVVFpQr5N5/BRsHjN6kjNQMNR+ulnun+74rnbltJa1tqtCkQOOAqnPGKUPfNx8ekHvbzI3aXxSqpR5pZat+pSFhxgFDpihzF5t7veTBac72SifgXQtG3nx50D3EOGDxEjXFfA+DxXPy4GtzYOXpSsZjFoqj5UNVeHFA3v8WqGmWmHN95MFKS1yvJUrMLgtDyRR5MMKCiwNW3qEmW22OnSDF+OOMlWfVKUFHWhDWyYdBocUBvf+oZuj/QhpOwOpyLFmf9lSyFlkAyubLhx1hxQH/x96dOFdVnnEc//1mMnfLRvYFAgmEPQQMS6AkhF0wQ9iD7DBlCXuMIIsiEjYLxaIiBcpYOp1CEaVjsVilQO24IWJbW5aqDEjtZrX9FzpTW1v2JOee533POc/nL7hz75zvnXnnOc+bcqWQLVIXgZvCWyigVGBW2qFOIRg3lyIWWhUH1X0eW2ox3HSZEv6MOEq7RjdsisCw2kSKuGRRHFSba3Tg53DRbq/9VxX0LaQ7GjrAqIJDlFFiTRxUeN9YOtGxGK75C0VMR7zMGUbXDMqBSfWUkZxkSxzUH5fQoQc6wC2bKeKwxKy0c/2/gDmvUsgk2BEH1btTlI41ROCOMoooDInMSjuXuxymrI9RSI0VcVChMX0s/j0ReZ4i3pWalXauPgIj0qZSyhUb4qBmdWOcHIAb/kkZf4NzO+ZRROMoGJB/hGIeMR8HVVWfZfeC1pwYZeyS2yvtXP+VEDejkXI6GI+DWpUn8IA5kdJIIdWSs9LOZWdAVocllFMKw3FQKyYwvqJnEWcHKaQy4nivtKxB3SHpdCkFdbItDrp03rms5YirnZTS4HRWWly0PgNiHp5NSU8YjYMa348OyJxKVscoZZrjWWl5I56DkLMVFPW2wTio4vZ0SXYK4qXtUIr5LlpsbyFN2T4AAoo6UVY5jMVBFR3MpWtOtEJ8vN6ZYrIcfOjPaE7F6Cq4rXYdhU00Fgd1birdNGgW4mHWVsqZhJYrTqRBQxMicFPmwlRK+42hOKgpJ+iy5Nfg3M4YBdXDgZdo1NS/JsE1ewZRXlcjcVCZb7Sm+673hjNJoynqMhxYlEyzRgxpB1cUP0MDlsBEHNTj6RSx9SM4UVxHUYn5cOKnNG3ryY2IuwE9E2nCSQNxUKOuU8yj69FSmfuTKetdOLJxJI1rvekbiKsNPVNpxizxOKjIT2IUlNVzAFoifPY8pa1x4V4NeYeuDESchMpO0JQtkI6D+t06Cku9fwOaq+BbMynvYzgTGUYrJP79UhWcW3SgnOZ0Eo6D6voOTVh9NQnNkDM3jwb0g1PnaIvc1bu6womBCybQqDLROKik9zrSkLxvfieEJmnb9wzNeAmOPUqLvDz8oQy0ROho325RmjU0IhoH9SJNeuvaE2m4u8OrskfQmOlwbH0irZJa94edo9AcKbMSjg2leYshGgf1FE0bcazvnJwk3KJoyp4h73/ahyZVtIJzT9I+fdrPfeqFGbinVg+PWbw5RjtUy8ZBJY2gDbI6Nz6zqf7XC3/2xugnx2V/sr2xPEYBIjcBt+pMS+XVfTb826ceWdEmcnOYT1c/vmtaTcNbtMjzEI6DeprK5RsrptN6uf2nrnt50vFudfPnrbs4OZU2WiMdB1WwhXegOrZDXKymYyq6SDwOagiVyxc6T6mkU+oDiMdBJaXz9tRziJO1dEqtNBAHdYm3pSZHECfhXnRGlYcNxEGFj/B21IeIm7YVdES9BxNxUFep3H4HcC+dULEqM3FQ/+Ct1HHEUXg3HVDjYCYOqjbKW6gxiKfDHdlyqq2pOKiJvJnqkWHNoLq6DlNxUIMrqZp6ubb8onq13lwc1LO8iSpBnOVvYcuoZTAXB5U5jDdQDYi7HVlsCRUtMRkHVUbl+tahpWwJdQxG46Cu8/+oQ3BBaDWbT0U3mI2DOh3j/6htcEPv82w29QkMx0Gt5ddUegpc8Xkum0nFupqOgwo38r/UPrgkgc2k1sB4HFRJLr+i8trBLdlsFpWeaUEc1H5+RSXANZHNbA51DhbEQUUmUZFkegTuaXOeTafaw4o4qBWtqUhug5s+jrGpVPLrlsRB/ZKKnB+Cq85l0Rk9jZSPgwpNoOIeuCyBTaPOpFgTB3V6rLbhV3DdXDaFyi2BPXFQKxl0qSVwXegdNoFaCpvioMYx4OZCQEED70nNT7IqDirzFQbaxQxIuO8M70FVPgi74qByeujMjYDepbw7tRy2xUHNYYBth5S0dN6NqoF9cVDTGFiVXSCmS2femSrNsCkOSneSJEBQcT/eiYo9CBvjoPIHMZi+hKiczrwD9RjsjIPKmcwg6t8Vsg5f5G2p4bA1DmpHKgPoMqQNOM/bUC+G7I2DGsPg2QR5XdJ5CzUpAxbHQR1k0JRXwYC0Q7yJ6jcYVsdB9WSwVByFETM28wYqVgu746BStuvxuIh2N3zRKrcMtsdBFfVigIwzmOEafk0lvgr746DyX2Fg9IrAoJP8DxVdBS/EQW0sZUDMToNRHyXz39QCeCMOauBMBkLHWhjWvQ8Vyb3wShxU12EMgNQyGHd4JhV/Ae/EQQ2eqYsDZFT9SM8bdsFLcVBt5ummQhmhk1EGWuopeCsOqsNx+lsn2OLNkQywijfhtTio+ybQzyaGYY2cIwysHl/Ae3FQmcu0DUKKshlQ5SvgxTio0PvaBimnejCIev0AHo2D2kt/qgnDNlOOM3g2FcCzcVDjK+lDPcOwT2R4lAFzAPBwHFTtFvrOj2GnC+UMkpHn4O04qLTd9JesBbBVqw8ZHGcGwOtxUJk19JPKq7BYWT8GxLgC+CAOaldr+kafF2C1/PsZBIXjAV/EQR1Np08cmgLbXVhH36vLgV/ioKq+T1/4UxHsV3Aymb6WuyYFPoqDejpGz0v9Ibyh+FP62KQSwFdxUG2P0+PyLsAzpo+gTyV+Lwl+i4NKWphFL/syDR7S7tkY/WhJLeDDOKjPS+lZFa/BY97+PX1nbEIY/oyDiuzPpTfN3wDv+e0H9JeaNoBv46BK6uhBWQcj8KSHltA/5nUH/BwHFd43mV4zvxqeNf4B+sPsBSnwexzUxuwovaRwbRgelrLcD3koXJoBBCAOqrqR3rFsMDwuvO0Ive1f7NzfS1NxGMfxzwN1WtPj1qrpSpg1U+dQJlbo0qolq8SVKtQ0CzAV04AsTUdGjhYVSkaGUFJQJghZhUlSKZhUSBkBeRMRXdlN/0R3QlCm7tf3nPO8/oj3zefhkWcCgDbiwKQJEylDcQlUQBqrI+WKq8gHtBMHput2k/gst+OhEs1tpExyWj6grTiwnKoUEpv+jhEqctFcQIqjv2oHtBcHtqHfQ+JKSlsDlQmc2k6KkleVC2gzDqz6tai7ZmHjSahQQkuNcqaiUa8V0G4cWM6HShJP1oNkqFXG0DtSAMMTBwBtx4EllN0isVh6q6Fm8S3DSSS2y/12gOPAgJ5nMgnD2amD6tnqp0lYhXPN82dnHAcWmDxGItCbL0Aj8nuzSURBbw7+wHFgXbN6irGGFbugJantTSSWpva//ejkODBja00cxYypPxHas/97cD0JInM8A//CcWDJ3c6YTG2Wuy5oVe6VCgvFmjz10o6FcRzYjhsvNlJU3fvskqBp0vH2oIFiprixZBMWg+PAjGUH0yk6DOWTiWAA1vYNTcsUdXnDezKwFBwH5vP/0lNkra4rKjFiHoO1682Uh6Km8mG9T8LScRyYzrFt0E2RYagrHbNBAMKRUjtKG2SKsMLM0s73CAXHgb26Zm6SKaz2zvpdViyA6c56R6YsFBEp5SMdvlUIB44Di/92/XS5m0J3yGkeWGnD4rD7X/zm85/CNx9tde6bfHtEQphxHJitx1s0mL2FliOr9ufMQJ8dS8fW+X6Mp7XV5tGyJZnOVFR5HQFEFMeB2R597P46t3k0Xab/Kah8fvPxAf/RwzaEjFkTz7U+PXGprcHkocXw7MwcNg/5J1y7pd/s27EKAQEAxnEPYLGcxahbPIRFcYWSsphkuxRlssh45VIGGY6yKZLVYPEGHsHmNTwFGX6/h/gvX1/ut8SBanG63CzW90dUG8Zh0G7Xw3hYi7JduupvT+PGt5YI8oVy793sPNNrFg2SyT64dF9BGCeDQzaatW7zyvlY+sP7mjgA4gCIAyAOgDgA4gCIAyAOgDgAiAMgDoA4AOIAiAMgDoA4AOIAiAMgDoA4AOIAIA6AOADiAIgDIA6AOADiAIgDIA6AOADiAIgDgDgA4gCIAyAOgDgA4gCIAyAOgDgA4gCIAyAOgDgAiAMgDoA4AOIAiAMgDoA4AOIAiAMgDoA4AOIAIA6AOADiAIgDIA6AOADiAIgDIA6AOADiAIgDgDgA4gCIAyAOgDgA4gCIAyAOgDgA4gCIAyAOgDh8xoQJRsEoGAWj4AMAe/+0GdLifnAAAAAASUVORK5CYII=;rotation=1;" parent="1" vertex="1">
          <mxGeometry x="240" y="65" width="40" height="40" as="geometry" />
        </mxCell>
        <mxCell id="Q538PQ-l56nIkoy9aGrn-11" value="" style="shape=image;verticalLabelPosition=bottom;labelBackgroundColor=default;verticalAlign=top;aspect=fixed;imageAspect=0;image=data:image/png,iVBORw0KGgoAAAANSUhEUgAAAEAAAABACAYAAACqaXHeAAAACXBIWXMAAA3XAAAN1wFCKJt4AAAILklEQVR42t2bX2xT1x3HP/favnEcO3H+kMRJcZImBGd0XrNgBmgrkypNZNMk6kkgIGyVkGLx0FDUR/rSh0l9qfjz0iZVnkCVWLeMpzEhVSqrhLaSLKv3p+ZPNggNDsEVCbhuEv/bg2+c6yQktu+5YPp7u8fH55zf9/z+nd/5HQmDyRUIuoHtQA/gAVqATYB7RddJ4AFwBwgBY8C18KD3rpHrkwxiugfwA/uBDp3DhYARYCQ86B0rWQBcgWAN8GvgDeBFgzYsBAwCH4YHvd+UBACuQLAWeBvoB2w8HYoBQ8DbeoGQdDLfD/wWqOPZUAQ4GR70Dj1VAFyBYBdwTjVspUBjwKHwoPdGoX+Ui2C+DxgtIeZR1zKurs04AFyB4Fl1522UHtmAc65A8JRwFXAFgjbgY+DnPB80AhwJD3pjugFQmf8z8BOeL/oM2LsRCPmowB+eQ+ZR13xelw1wBYIfAHt5fum1jWyCtIG1P8d3g46EB73n8wZA9fOjJWrti40ce8KD3lC+KnDuO8T8kos8n5cNcAWCb5RYkCMsWFJD9yerQP9wrC48M/vl6O2I8Ni+0y7Tt6uS7q12mhvLqXUqWMwZ/JMpiC2kic6nk/fn0lJ4LiXNxw05qkeALr9PiSw1mFd0OOmqd9Y1PHjE/W8Whcx40GPl9d56utodmM1ra5xJBke5hKNcMrmq4fspEzNzKUL3Usx+mxYJQB1wEjixSgL6h2N1ajbG9ujxt1z5ckr3jr+zv4E9O/QJ0+2ZVOqfXyXlREqoQWxZkgKtBPQtGb5KRzlb6uzcjESLmuEXLQrvHmuj1qnktE9HEgRvzTM+EWd0MsHVrzNc7a6V2e42091uwdthpbFueVmt9bK8qUri6o0k0YW0KIPYB5xeKQG3yeTrAJhfiPOXf91lIVkY9Md/ZGfgoJtyqynbdnc6zkefRDk7np9aDXQrHHrVzuZGS7YtniQ9OpGQph8JAeGO36e0ZgHoH471qH4/hyanvuaLqYcF7fzZEx1Z5hOJNBevRDl+KVbUKs/02ti3x47ZLGVB+PQ/CUmQJOzy+5S/Llkl/1o9XnDV4FBMeev8u8facph/78Js0cwDHL8U470LsyQSGYYtJqTdnSbMshBb8EttHHB4zSBBlnjJnZ8Re2d/Q1bnl5jPV+TXo7PjizkgVJRJvNRsEiEChwHk/uFYi1b3V/mNGgfNDuuGrk5r7S9eiQphXgvCxSvLBrmtQZac5brDhJaRa4stcj5RX+cGUvB6b32OwdMj9uupw93pePbb0yRED3ryAsBeYaWroXLN3zwOma52R/b7o0+iGEXaseurZBSzGAA8+fR0N9VQZlqN+qGdldkIbzqSECr6a6nCdCSRjR5dVbqlwCOvp/9aUixmtjVXr2r/oWd594O35g0/0WjnaKjUbwdkoD7f3q56JzVWS05bU8OygRyfiBsOgHaOSptuAJpkYHO+vWVZostdm+slNOHu6GTCcAC0c9jK9N/sFaxENU47Lc7y7Lf2hLcU2xtJ2jlMAhxBUUN0bH5WV4HiqSgAbOVlbGusUqO+5R3ZXSsbvmDtHMmUGAAmi/mjuznjFiOzy25vu9tsOADaOWL6D0VfyWTKUgoms8nED1pqCc/MZ/ehu91iOADaOeZiugG4L6tZoKJoU00lX0wsZL+9HVbDAdDOMTOnG4A7Mpmyk+L0R5b4+31FWrIDjXVmBroVw5gf6Fay2aJkCqZmdRuBkEymuKBoWpCt0q2pZd986FW7YQBox56ZSyEgTzgmr5UJKpQuBZdXsrnRwple8XcqZ3ptOSmy0D0hMceoPHTUNgnc1CVHD9J8HlqWgn177EJVYaBbYd+e5d2fmE6KSJff8vuUySWn+rHe0S5cizMbTavRocRbB5xCQBjoVnjrgDObF3wcS/PvKSG7/zttIDSid7RoHN6/vMD8Yi4IetThTK8th/n5xTSXg3GSYu5KRiA3LX4d6NQ76k63zMFXFKyKlJMl0psWn19Mc/FvccrKhdyY3fT7lM6VALwJnBIxeqtT4tjPynDacxdbzMUIwGw0zfuXF2iqk0UcgQFO+H3KqosRBzCNoGtxuwUO+Czs8OgLjz8PJbhwLU51hcQ2t0nE0mJAo9+nPM4BQAXhFPCmSPfl2STR+7KFjiYT5jzXn0jCxL0kf/pHnNCDNGYZfrzVhNUiZPdP+33K6stRFQA78D8MKH21W2D3iya2Nss0VMtU2+UsIIkkPIymuP8wxfWpFFf/mySqSS55GmVa64WcNCNAm9+nRNcEQAWhn0xFdkmQ1QyveMzIYk7aAb9PyakrXlOm+odjJVMK29NiYlOVENEf8/uU7fkmRPpUY/FMqbZCEsV8jCdd/63VOHTUFgICzxqA7zULyzAF/D7lekEpsaGjtvOoRQTPglprJCqswqz+EytGN5yhfzg2Arz2NJk3y/DTLnPebnO9cNfvU361bk4jj0H6yBQePzXa2iiLYP4z4MiGSZ2NOgwdtcXI1Av/8Wkwby+D5hrduj8C7PX7FP3l8kZHiitpR5uJGoekV+dP5Nu5IKiHjtpOqGJliIusd0h6mI8BRwphvmAANN6hB525xLWoq3i3Nwa8vJ61F6ICTwibhTyba6+T2VJ41UcEOLkyvDVUAlZIwxCwRY0XilYLiwnaGuRCxf000KqHed0SsEIaqoHfUMTTWe8LMk35Wf7rwAfAh36fUhpPZ58AxtLj6cNsUIFSZZXY1bmu078B/F4Nakr38fQ6YLSoRlP7fH4zamXKznYTzgoJ4C4wQ+7z+VG/T5k0cn3/B9+1jSDwYGQ8AAAAAElFTkSuQmCC;" parent="1" vertex="1">
          <mxGeometry x="290" y="20" width="40" height="40" as="geometry" />
        </mxCell>
        <mxCell id="Q538PQ-l56nIkoy9aGrn-2" value="" style="shape=image;verticalLabelPosition=bottom;labelBackgroundColor=default;verticalAlign=top;aspect=fixed;imageAspect=0;image=data:image/svg+xml,PHN2ZyB4bWxucz0iaHR0cDovL3d3dy53My5vcmcvMjAwMC9zdmciIHdpZHRoPSIxNDQiIGhlaWdodD0iMTQ0IiB2aWV3Qm94PSIwIDAgMTQ0IDE0NCI+PHBhdGggZD0ibTcxLjA1IDIzLjY4Yy0yNi4wNiAwLTQ3LjI3IDIxLjIyLTQ3LjI3IDQ3LjI3czIxLjIyIDQ3LjI3IDQ3LjI3IDQ3LjI3IDQ3LjI3LTIxLjIyIDQ3LjI3LTQ3LjI3LTIxLjIyLTQ3LjI3LTQ3LjI3LTQ3LjI3em0tLjA3IDQuMmEzLjEgMy4xMSAwIDAgMSAzLjAyIDMuMTEgMy4xMSAzLjExIDAgMCAxIC02LjIyIDAgMy4xMSAzLjExIDAgMCAxIDMuMi0zLjExem03LjEyIDUuMTJhMzguMjcgMzguMjcgMCAwIDEgMjYuMiAxOC42NmwtMy42NyA4LjI4Yy0uNjMgMS40My4wMiAzLjExIDEuNDQgMy43NWw3LjA2IDMuMTNhMzguMjcgMzguMjcgMCAwIDEgLjA4IDYuNjRoLTMuOTNjLS4zOSAwLS41NS4yNi0uNTUuNjR2MS44YzAgNC4yNC0yLjM5IDUuMTctNC40OSA1LjQtMiAuMjMtNC4yMS0uODQtNC40OS0yLjA2LTEuMTgtNi42My0zLjE0LTguMDQtNi4yNC0xMC40OSAzLjg1LTIuNDQgNy44NS02LjA1IDcuODUtMTAuODcgMC01LjIxLTMuNTctOC40OS02LTEwLjEtMy40Mi0yLjI1LTcuMi0yLjctOC4yMi0yLjdoLTQwLjZhMzguMjcgMzguMjcgMCAwIDEgMjEuNDEtMTIuMDhsNC43OSA1LjAyYzEuMDggMS4xMyAyLjg3IDEuMTggNCAuMDl6bS00NC4yIDIzLjAyYTMuMTEgMy4xMSAwIDAgMSAzLjAyIDMuMTEgMy4xMSAzLjExIDAgMCAxIC02LjIyIDAgMy4xMSAzLjExIDAgMCAxIDMuMi0zLjExem03NC4xNS4xNGEzLjExIDMuMTEgMCAwIDEgMy4wMiAzLjExIDMuMTEgMy4xMSAwIDAgMSAtNi4yMiAwIDMuMTEgMy4xMSAwIDAgMSAzLjItMy4xMXptLTY4LjI5LjVoNS40MnYyNC40NGgtMTAuOTRhMzguMjcgMzguMjcgMCAwIDEgLTEuMjQtMTQuNjFsNi43LTIuOThjMS40My0uNjQgMi4wOC0yLjMxIDEuNDQtMy43NHptMjIuNjIuMjZoMTIuOTFjLjY3IDAgNC43MS43NyA0LjcxIDMuOCAwIDIuNTEtMy4xIDMuNDEtNS42NSAzLjQxaC0xMS45OHptMCAxNy41Nmg5Ljg5Yy45IDAgNC44My4yNiA2LjA4IDUuMjguMzkgMS41NCAxLjI2IDYuNTYgMS44NSA4LjE3LjU5IDEuOCAyLjk4IDUuNCA1LjUzIDUuNGgxNi4xNGEzOC4yNyAzOC4yNyAwIDAgMSAtMy41NCA0LjFsLTYuNTctMS40MWMtMS41My0uMzMtMy4wNC42NS0zLjM3IDIuMThsLTEuNTYgNy4yOGEzOC4yNyAzOC4yNyAwIDAgMSAtMzEuOTEtLjE1bC0xLjU2LTcuMjhjLS4zMy0xLjUzLTEuODMtMi41MS0zLjM2LTIuMThsLTYuNDMgMS4zOGEzOC4yNyAzOC4yNyAwIDAgMSAtMy4zMi0zLjkyaDMxLjI3Yy4zNSAwIC41OS0uMDYuNTktLjM5di0xMS4wNmMwLS4zMi0uMjQtLjM5LS41OS0uMzloLTkuMTV6bS0xNC40MyAyNS4zM2EzLjExIDMuMTEgMCAwIDEgMy4wMiAzLjExIDMuMTEgMy4xMSAwIDAgMSAtNi4yMiAwIDMuMTEgMy4xMSAwIDAgMSAzLjItMy4xMXptNDYuMDUuMTRhMy4xMSAzLjExIDAgMCAxIDMuMDIgMy4xMSAzLjExIDMuMTEgMCAwIDEgLTYuMjIgMCAzLjExIDMuMTEgMCAwIDEgMy4yLTMuMTF6Ii8+PHBhdGggc3Ryb2tlLXdpZHRoPSIzIiBzdHJva2UtbGluZWpvaW49InJvdW5kIiBzdHJva2UtbGluZWNhcD0icm91bmQiIHN0cm9rZT0iIzAwMCIgZmlsbC1ydWxlPSJldmVub2RkIiBkPSJtMTE1LjY4IDcwLjk1YTQ0LjYzIDQ0LjYzIDAgMCAxIC00NC42MyA0NC42MyA0NC42MyA0NC42MyAwIDAgMSAtNDQuNjMtNDQuNjMgNDQuNjMgNDQuNjMgMCAwIDEgNDQuNjMtNDQuNjMgNDQuNjMgNDQuNjMgMCAwIDEgNDQuNjMgNDQuNjN6bS0uODQtNC4zMSA2Ljk2IDQuMzEtNi45NiA0LjMxIDUuOTggNS41OS03LjY2IDIuODcgNC43OCA2LjY1LTguMDkgMS4zMiAzLjQgNy40Ni04LjE5LS4yOSAxLjg4IDcuOTgtNy45OC0xLjg4LjI5IDguMTktNy40Ni0zLjQtMS4zMiA4LjA5LTYuNjUtNC43OC0yLjg3IDcuNjYtNS41OS01Ljk4LTQuMzEgNi45Ni00LjMxLTYuOTYtNS41OSA1Ljk4LTIuODctNy42Ni02LjY1IDQuNzgtMS4zMi04LjA5LTcuNDYgMy40LjI5LTguMTktNy45OCAxLjg4IDEuODgtNy45OC04LjE5LjI5IDMuNC03LjQ2LTguMDktMS4zMiA0Ljc4LTYuNjUtNy42Ni0yLjg3IDUuOTgtNS41OS02Ljk2LTQuMzEgNi45Ni00LjMxLTUuOTgtNS41OSA3LjY2LTIuODctNC43OC02LjY1IDguMDktMS4zMi0zLjQtNy40NiA4LjE5LjI5LTEuODgtNy45OCA3Ljk4IDEuODgtLjI5LTguMTkgNy40NiAzLjQgMS4zMi04LjA5IDYuNjUgNC43OCAyLjg3LTcuNjYgNS41OSA1Ljk4IDQuMzEtNi45NiA0LjMxIDYuOTYgNS41OS01Ljk4IDIuODcgNy42NiA2LjY1LTQuNzggMS4zMiA4LjA5IDcuNDYtMy40LS4yOSA4LjE5IDcuOTgtMS44OC0xLjg4IDcuOTggOC4xOS0uMjktMy40IDcuNDYgOC4wOSAxLjMyLTQuNzggNi42NSA3LjY2IDIuODd6Ii8+PC9zdmc+;" parent="1" vertex="1">
          <mxGeometry x="710" y="190" width="80" height="80" as="geometry" />
        </mxCell>
        <mxCell id="Q538PQ-l56nIkoy9aGrn-20" style="edgeStyle=orthogonalEdgeStyle;rounded=0;orthogonalLoop=1;jettySize=auto;html=1;" parent="1" source="Q538PQ-l56nIkoy9aGrn-16" target="Q538PQ-l56nIkoy9aGrn-5" edge="1">
          <mxGeometry relative="1" as="geometry" />
        </mxCell>
        <mxCell id="Q538PQ-l56nIkoy9aGrn-21" value="read" style="edgeLabel;html=1;align=center;verticalAlign=middle;resizable=0;points=[];" parent="Q538PQ-l56nIkoy9aGrn-20" vertex="1" connectable="0">
          <mxGeometry x="0.1214" y="-1" relative="1" as="geometry">
            <mxPoint as="offset" />
          </mxGeometry>
        </mxCell>
        <mxCell id="Q538PQ-l56nIkoy9aGrn-26" style="edgeStyle=orthogonalEdgeStyle;rounded=0;orthogonalLoop=1;jettySize=auto;html=1;exitX=1;exitY=0.5;exitDx=0;exitDy=0;entryX=0.25;entryY=1;entryDx=0;entryDy=0;" parent="1" source="Q538PQ-l56nIkoy9aGrn-16" target="Q538PQ-l56nIkoy9aGrn-6" edge="1">
          <mxGeometry relative="1" as="geometry">
            <Array as="points">
              <mxPoint x="600" y="400" />
              <mxPoint x="600" y="360" />
              <mxPoint x="597" y="360" />
            </Array>
          </mxGeometry>
        </mxCell>
        <mxCell id="Q538PQ-l56nIkoy9aGrn-27" value="&lt;div&gt;read&lt;/div&gt;&lt;div&gt;&lt;br&gt;&lt;/div&gt;" style="edgeLabel;html=1;align=center;verticalAlign=middle;resizable=0;points=[];" parent="Q538PQ-l56nIkoy9aGrn-26" vertex="1" connectable="0">
          <mxGeometry x="0.2054" y="-4" relative="1" as="geometry">
            <mxPoint as="offset" />
          </mxGeometry>
        </mxCell>
        <mxCell id="Q538PQ-l56nIkoy9aGrn-16" value="tab_infos: Arc&amp;lt;Mutex&amp;lt;HashMap&amp;lt;Pid, TabInfo&amp;gt;&amp;gt;&amp;gt;" style="ellipse;whiteSpace=wrap;html=1;" parent="1" vertex="1">
          <mxGeometry x="230" y="380" width="355" height="40" as="geometry" />
        </mxCell>
        <mxCell id="Q538PQ-l56nIkoy9aGrn-22" style="edgeStyle=orthogonalEdgeStyle;rounded=0;orthogonalLoop=1;jettySize=auto;html=1;entryX=1.003;entryY=0.468;entryDx=0;entryDy=0;entryPerimeter=0;" parent="1" source="Q538PQ-l56nIkoy9aGrn-5" target="Q538PQ-l56nIkoy9aGrn-7" edge="1">
          <mxGeometry relative="1" as="geometry" />
        </mxCell>
        <mxCell id="Q538PQ-l56nIkoy9aGrn-43" value="&lt;div&gt;kill&lt;/div&gt;" style="edgeLabel;html=1;align=center;verticalAlign=middle;resizable=0;points=[];" parent="Q538PQ-l56nIkoy9aGrn-22" vertex="1" connectable="0">
          <mxGeometry x="-0.3988" y="1" relative="1" as="geometry">
            <mxPoint as="offset" />
          </mxGeometry>
        </mxCell>
        <mxCell id="Q538PQ-l56nIkoy9aGrn-32" value="&lt;div&gt;grafana-dashboard&lt;/div&gt;" style="rounded=0;whiteSpace=wrap;html=1;" parent="1" vertex="1">
          <mxGeometry x="490" y="493" width="210" height="110" as="geometry" />
        </mxCell>
        <mxCell id="Q538PQ-l56nIkoy9aGrn-35" value="" style="shape=image;verticalLabelPosition=bottom;labelBackgroundColor=default;verticalAlign=top;aspect=fixed;imageAspect=0;image=data:image/png,iVBORw0KGgoAAAANSUhEUgAAAF4AAABnCAYAAACJp/ULAAAACXBIWXMAAC4jAAAuIwF4pT92AAAgAElEQVR4Xu19CXgcxZl2VXX33CPJh4yxDTY+ZMvmyMZOILBJ5IRkw7FsSLADNkeAcMRcJuR4vNldi2SXJAS84Q4ssFnY2IBClvwhkCfL/yP+wHJqY7MYnxhigrHxoWNGc3fXvl91tzwazai7pRGY50nDWNJMd3XVW1993/sd1cPYn48/I/BnBD4ECLxy6UKDurl/+eyGnmWtT+D1h/S5LcfRe7KdiXa8PgTD+HB10QW99+z5x/csm7fHumC+zJ8/X/af2yp7ls9b5Y6GJuBQHRk/VDtWq18E+qJ7uord57R+URfyP3TBWd6URcg5QOaiMazx3rzV0bR201Jq45ElTFvawcxDbZwfKuAHQD+79cyowX5ZsCTD/yWAqjvASgyo2BDWQr1583dNazf/lat6eDuzDiXwPzTAy7Y2nXd2lnqXt56gMfa8xRToJMn4c8hRgOSHevKlx8at3XKmxFJwBopfD43jkNWB5fCQribQe5YdM05K+SsNvZa2pFcDnS4liS80hfUvdi+btxqgS9neVuvcD2QmPhTAs41MCaxkxXsbQ9qkgikLEF1XvdQCzujLm1ZY8PbeZS0f5+2dJblkySED/iEPvFIxMI6957ae1mCIL/UWzBJAD/kQU47zrBCML2zuP6vzOzoOGT1/yAPPOjsVI5GW/J6pNDTZT9+Hni5ZpYQuTuw+e+4ZpHK2nTI7TDrfdwuu1cY1pPKIJUn1WqKNpB33voE7ELTDozl/wKBC2uMaf7y/aJG0e6mYyluWkobQU0VrgOWo6VMcv02wjc2SVgJNSuWFCti2Nq0THyyGjak2FsdwBzbahyTwA6DsSnEOzt6zbO5DjSH9K6RmMPigwNMSIbVTAIxXSm69xK3wzqa1/9M9yIBDpTkA2wsLxpjsgnsO9enAttlTBBcTmKU1QotpeS380uQHX+0fCfiHFPC0hNneNk4Mxh3we8ta54SYfA6OUnPJBJfhwdUEtUUDTRiCZQGracm9UPZbOZPPMiaeaiyKF3jHxnSlRO/664WxWDJ9GufiDLCpjwPgaQbnMeKmsbDGerPmT+Gofd1dmUFW9yEBvAKcwHE8zPQ5Rx9WYOaXhcAnkp0A+xgBZydBHE1/cb0E3lwYgnOwHabhVUTDWdPabVn8KSH42safv/4kSXfvttZvAuxrGg0xhQNpECTmOGzUDzLS1OdimPE50bWb/qgobwAnbTQDsfXkxiWc7d0LXYhu0FotP9z3mjuhR9kQPaqu72xTHJ0uQ9xlIWT6Ki7YlxoNLUkCnilZ5CiNFvQq6hvgoV1gyrGatJguQPYl6y1YG+g9OGDHZosKbHf1EREhvFzMiqC2BvyFVU3rNv8QfoJerpq8pD8Q8MrYLFkiCOhydeB1k3I9qQwa64TEAHBHh/Yub/mYZYnVIY2fRgCkiybUARwkrtSzO2C/twl8Hm6CuSUpljyqaxp5ZznEf/AeSXUN5ifNOM4Fa3pu3NrNfzlmEl9NjyEkO01jYi6zxGwstCMgQRPsYJVSHCbnci+kaKeQcgsU6OYp67buK0cldd6xk6xS4UZD4xdENM76aN2zgTBAIKEIjHbtC1yu70W1pQYdBK7boxWKLcmO7XuDGNlAg6Pl1Lt1TxvAPAP9/hTkvyWuiyh0pr0AK0mV8x7px5xp9UCg1iNq8tswYw8VuWyDnbu9KaQl+gowd7beDMpY6oj3iJqSZC8gL4sQkOsiW+XaKa/WvAaqoKMGe/V53+rduvsyqIIZhhDKKAFMli1ZZoYgr6aFD74ndC6aIgZvg0Fr682Z/xjVuE68DRQRIV1GSQ0vCfMaywfxOXnGWkmak+ybL8Grw1c/hgUeeovDUsseo3VaWLAfUOwbQJcyNqA0KQSWHf+otnbK3ithmaSLFgwaFDdnOmidu6RVJqnOh7v2qjk25QZy1LclaiktEaOGOolk+Dy8JF41o0kzWrBEAcEpAwBrI+TSpI/oWlocBEi9JJzYkgV7qCYf/1O7gqgiZUYIGFcLKn2GE53Qg0lC4BhwV4h8wnbwNGWVmFTOWFszvGCfhy/gua7p3JQhJ0riu/Fh+uBbMmq0AdDwH4QAfFwg6QRNa8MLNkIZKbNkyT68k0Vn8/hJ0cwIzg8D9wYdThBUpgbeTjEgdQ1oowrx4xw1cT7wk+QKgO7mTWFuVecv6CDa7OvwBbxZ0LLQZAWMLaQk64M5CGoTwOgw6BqpPeL4eUvuzFnyVQC/gUtrE7j/HzXN2C3y+d4sC2ebFzTnVEgYwbED41k4qoukVTKa+4rmTMH4AqD9MQxnIWzOlDCmgogATZyzKkmN1hQSknZ8CB9Wn4/z/sR2LcT5Xb4ioMNKnstN+8+eO6Uo+BYwvgR6VG9nxmsaFeAAWo/D5QdgRLNfwHu/wi9PdUfyrx31s7dyXo0M97m8dGEslUp9lAlxGto+E5MzVwcyoLd02XDxIQurR5D9EpKd1LBu8/Noy6D4kld/hgfeTplJed6x8T6rsB03mQw2Q73xsxS97u39ObJMyDbpCQNxkYLZjRn/ma7x+5MPbnqt/GIVcljQxpXnTF7yAkzLaqWK1DGI6YIwdCCxsgQxIeVtb+yU5RSQykJWbmn9LIJpK7AivtgQUvd2ww3VEikmMRuoqgyicB+ZtHbTNj+xG1/AU+e7z5m3PmaI43Kgj45H5w3cyM9QBrMhJHS48P2Y/RulNG5zI4oEzulY1gu7sayrhCKC3tb2yJnoGrdQUAWDe33qvNajTVOuAldfRrEdsDJ404rFDcYNAgJsdKi+HY2J+DGQ+IyXJzusjlfS7jgF8ELfNDg7Dmt6rLV8CSqN9LjoLZqPFIVY2fzvm94lMKjKYAfAXtrOzHafutTPJCiipQJ0XSRUvBMxeLou+WAnrazlvcsW3FKwzDVNYe2kFFRdRWUDTQOBTrGbmT3p/odxzV973deTXbjBn14kjbHs2uFlUgxjLLg39bUItmFgEFkM7uLx6zavozdJb7K7u0qQ/LGe9EF4VYapDyybdyV07BoIhdEPoHFyJQ5FBNeQ67W+0bh20z8Pp+89dXUn6U06hHwRFI1G7nmN12zX+LyInCqBvo2ZpWMIdNKVasli+b/foFMfSfdTMFCl+dCP8Ws33w6/cUG6ZK6nyCTAIMNbLgw6EuzEdG9OnTenlfrthrwrx+wJYtvTds4TPP6V/pLZAwNLy7DekqdCrGARL2cS8Y80Pbz9jY1LFoRo0EFi3COccM/LeEeHSf0gCYYkb0Otzl9g5T8A6SZVTWTDxYMyXZRq5Kal3akaJkNf5fAEniSNZq3Bjiz+VxQ8C/qpbiVxaKuIjhp9BeslGKaTpsAwkS5f0LGx4InI+3wCSfDTWIV028a1my/oyZvfawwJmCQFrgsw5XdLyCe09S6bu1xNmHNNeXc9gVcnE/WiliX7BVxE+lmXA42WwJkNdHR7fyq2WC1NdLKcWdTlRnVshJLepHZIGMet27y6J29dh5QisijqJi4yggKI4LPfJyFS6qqCCfkD3imx4Dz0GJjGfnBpmvXRwc8RxYdThLRbjgvtlCm/Jgpml+nVEacxaUqpP9BYEhKAvwbVD99qJL5pqx2CWIDXk6E9anY68zX1XkUlmyercXvuspvu8+bd2hQSV8Fyg90gaDbyw0walMGR5zQ+uOkhvx7fSG6npA2O05BrEXl11MRImlUQA3xNlRcun3dDY0SsKsPFiiAEkbOsNxpzx84lO0H9cO8XAHg7mdv91XkzuCWRoWcGVM6Isv6k10FNDejIn497cMu5fjy9IMgMlId0EikffgWpSSHe3kZ36LSCGnN3Uum6nvPmPgIpXzKQYwDrIScQYY6zmx7Y+nD5OH0FydTUkpGwE7pvdV8w9y7M7tV9OXhyQTk9IllgRkZvsdSjldhKBWgbcrAAabTHQLUCHCw7r2sf3V+d0cSlPsGyjCiV1yCsKKNC9kVL8QMcdTGoViu597eBxES0d5p+VoNyMh39Dck+p0979ZiYwedRgkiFz3ECssYXoxsPd1A4wzl8SzydT1UtyrZeOrOxr6RvR550Yq4ULHaD64tJmzqubLxvyy31UDF2rAZqwymvyJzfMrWksZMxysXoNm3POQKv5KDoKucZjKQP77+NQZGH+lyesWeb79+yxQWHBI2txgT4cNwGVPFFLceBb6938gMU+kD8jBL3ZmvjfW9sd0MJgYBX4DtlDN0XtZyJOPgvi1SD4eajPEVW2nrPlNsb+o6bV6n3PC+vckJ5WUX3RbMWIzR/Bfy8U7HkId0YMf4oQP4pAVIeryVTiGQ1o6JWKvumA5SWKg1ewnB+joW8tvG+jQfKx+zVP1eI+i5uWZUMazek8srL5w1hqJucvLbx/i0/cfsbHHhH6ndfPmtS1BRvqFAxMadh4tYDHea2zkMtyoqme7ff5e7w8BpQtc+VHkcEkqQxdfmsoy1T3BzTxOd1iFu6gFocO5xL3IvGWM7eDgYrSZJtOzXAwREOUIVOcJAO4N27mAytoQmg1d6xlInhtvWUG8++r83ZEDX4sZmiLCRDIoRJ/b9N92472ZV4f3SyfOTX2wGkiCXObIhoCQhTCcM6mLdx8zdDf1oo4yBDs7uxKfYAtbHwnq4RUUcVuINaIdB7Lp3zXSjt/4FUfT5jWSZUWAnrm8DU1Qs4Ov2jPrr9tH+nf+lz91xc129aJgJhRVDm8Q1R7btMK2zrvWT2CroXge5ufKsmDErfk3qimeb8OmfKRQaSCT2/KHXh7GZlK9G74MAjfk0NcyFPZxxypQCmCM7wL9zJjIbRe43/O78JhZ6kskbgC7jRUgop9H591uONMfGPFhz1PiTh0QeALAE2WKKPPlU5h67TkNUwYLpkX7GECWDjG2LaHT2Xz+7c/7XZ08i5U0G7Goe9AYJpiX/Z+lTGlL9piKCagslCLMQbeUgcqy7DygkEvFpKmPXulWAJnJ1ABaBgsqQqFUEd5kVJZYROKb/MoD9RBOFMYBA144L+9rXTokc0559riOinQY9SShIqR4Is1eyDUknKSHr31R4HVgR+GiZYWAoRWThIn9YNtin99ZaTlYftSPZw/ee6/CekJpV464ipW8JaROdT3D8Q8JQsoAsNUyyKhflERKZNSL4f6bJwPode+e9xd25bT9MVdAskJT9o0klHNhYincmIWASVUECPQjUkHH1jRXxmklqh+gYCE4WwFv4m9UgrBL97rFaOyjjBjBTCwCGdJUKG/M/eFbPOV5JdA3zVT4pv3bH9+TyTv4uGeIhMO5A6mvBLTUm65XY+5Y7Sa8pesRMpLoer5UBOvrZupxm36HxM8+PqTiPYCLba2QfVt2/Wz5Mx8XEFOpcEuqPuSOWpF4FqxcNcS8S4EQ8LQI6kKJclqBArZHCRjHKdXiiwIlDtiaDVUHMManKMopRmDnOFSf+3vqtnXkjg19T5DlYA7A4IJ0NeFsUtciYN/xn4GL4dKAWYox6wZo9XhsMuKvWcNZxFOUlMlPWf5e14XuicoAJNWN5918y6JBkWZ6dyqD4DExx0PVYylfuCxumUIkUo4mVwyd8A9Re5wd/GloackMLIM3NCviBn0xigRRZHDDHPQJlbKkcV3JgAOUwZIRliKS0Uqgok3u/vWzmru+EnXY9VZWdwwKh/yYnTnkgdeHsb+j0H1RDNsh3h7vaNBW/UnNG5VIkMSyrWsxk1DTNRBuEn8W0hPC0gLbvzvUYLHJRUOe3yAt+lX+kVMyYjq7wNbI/oa+V9TdBaLRZCFULeetIQ1vdia956wbNtQJ26ZuZJ0OWX47UceVOiou42zprY4AOT6D/m1+IWPy556xuvyUfAtJYODpe7E9K3cuYNyZi2KpU137NypXlNd+3s9q/jnSBTT2z/VCy7aQDSdpuGUTHqMyzhSAgncvaqAp10dSA206b6aEVEe0NMUHkJ9Lb6z1EtvBQ2uAb/voDsz/mNP9lxKoFONoEGrjaKURjXfam/KbNls6qGW3Y8m/zJjnPx7nFYJc8ko4JoKLVNKqhSjam/oWLpfiUwFeJAv1BtAfTK0K9KxuNA4fd/FFEqgs8TRjKqHLsAqoYAgG7S+JERnYVUqMCGfeBwPZPyn0DcwqA0qJv19ol2O17SSJ/b0t5Z6r7uqOmYvwv74YJCK+uut4afJvqiY+Xth9Vsa1iz47Wn25netlGFDw4mxCuruzo63dtzTIyg0hDc51XqXN83Z34nGmI/hLpCLNAuGXe9q4Oel1KwOhLDhWRcm5tO7/wxzrvWifEc9E0QOqYbxZI7utKpmdth2GcXrRyKpX3mT2kZuWDBQM3UIcEkEUSTyl80DcozKPupGAedrslBtTB+gLcnCSPk7PxETFAJIUk7sRN1f11nGuhajknzU8mbsNyhPxe3s5LfUmmaW5VXdbg3TXTDTTt+lJXWmWS9YJbJ+RoYpzsud4wYl5FG/ANcf2X/t2Z/1G1nYFYdh0o5TUL+VyKBmjPOs76AV4aNdBdi133fnvEd3HRNhiqswN+rUjHKOhLToJ/274KKhOFmvqk6FIC/D2xtEfIsk8IoitoNtC3hkmMZ83OTN+983TVa/iZ06Fn2BFAEdkGo4ca3HsM4zzBIHxCBACuqQTupysaMwMxbvHQDtTqkdBJBNnrfkFZ7OmOdlfjxW7vp75oGRO2vg4eldlV/e8YJ6Mj90H+tuTyo0UBtrucw1R4jcDkESfn8xh/v2OZV6OO26J6XXzVjHipOX3f66mgZWUpEND2dN3+R/MEflwTdf+TVa3cS+1ZN/wZY0s2QaqgPlXWrdVgQApEp8E82/GjHs5UbFNyobvnFVY2rGjR5egA9/bfTr4uE+fPgxa3pnFWkOkFa7p5G1Tastm8sZFbookfdmErr/B2qb0VuLUpEqeYam8Ds++L+XO9HIAzavj3oKvJza6J7ygH6wR/XpPLWbxNReCH2/asaW3LENKw+Lqwrqf3OBYMFWoXSgSnZH/f+Q2axXCJTfzf9nnhUXIIlQjuxTCyroKk+ibwqSh1QV6gzhLv9H127FmLaumjmjlbmFPkLpbpgUBMIswL43yS/v3NjNRrn/y5+zhTXYDPcJmXUSeiq7bOVKNdGhRkm5ozMd6dNjbX/6Z3Kle3kCgZIxSCJV0vCSSak/n56RyIuLumHlDu00KZZAV62EaokWX4Gi8jlyTYVg8c5nX6q0ISKszieKuePqpZe9+HB+bvloLNotZN9a/jBjq0Y/33xGAZD4Ydq48dKBFksAa+o1MTpdkM2Mah1DP7wensQ6fYj7k0k+Fn9OYqFSGgvOx5Drm+gF224sINSgmcpGeP/6HCslNCsRttQU7xFqTlIO4JtwnrRac0XNfV/54Nnujwc2x7uzEGiEe/RqA/VMLCjXkooTlMteJCIAeBtA8Ws9PVHrorHtIuVpJNbHkDCK88FB8GeS8Vs4qGopRwH5kyuXyBsyPGv/awMCfeefu4usNCfVBv+bYbfWw6cp4JdkJ1E+1vrwelfgcNEq478lyErn/gWhSogoh/b++2JSffaYSUe+kjtSk5dP3VxLMRugKRT1I4Miq0qRvFS/pomozARE4OMnPbP0aEijPAi7JAulCnpeyFTE9q3U77Ufn8sDyfxAx7eyWHhIO3VI5qgukWwUV2Tk2OJWIvqElhhTeAdvV6Sa6ZFuSb+jVLrijn4CQd4hwuIhZhgRKQmpqlOzPepk11mIPgeAl7FUR2mFDCmOspp6VTXA5CXbUkYhtFxZoYjAE+z5qpzK9hNeUcElr5K5aVz/IZ4XBwBT5Bi2BRKPegEje53ae9i5a3qxr6NYZs9YG7BuKlkAu13wU5q9XtS/mhiUn0+sO9jlPjWuhzhB/pIGPJN7IOGAFD4YxhsoBIhZjO9ekNFSqXUD49cgDjCSqgYWkpukKgGZ3Ukz0vay8MGdghZZV98H/PtFCPSWy/Qw7AwWNQnUIJXquWcsUKzVVsBbYbv+7snOtW+2I+Woni8SqYgODysH8PlYV73UToITPvvYzGiDXAS6EdFDGakf9uxDfAPMhkaO962JcgJDOMxD3R4qR1g2l3QXkbVxc6wQe4ThUSlGVbUjp+qzj2cdtq9DwfAhnCSJ640QXVM7JWAz/AgoaEPMynvpei7YWoLTlyayWOcFBRyYy1+DGp5XMY9v/x6/E5EFAkAqetyViZxxF+omzspxOHgopAtTdRR7djRJ/jDekQF5siJE9jESgb2YjWRlyH/6WciRzk3SGTR1FMi3LE1ZaRjEA64EdFvj0OIMPt6LAaXnLIvruHwSyEdY+caPWU23fec323J4CUjil+k9TeqP8MYnYr+2hxdWLdlclYebSm5Rxi4FItrR2USU79NH2+/dbafp/J5YVH9c4cMWJqcgLyCSyftkImL0wAOiupSKkxpkrb5tRkX7W1uJY4MlYCk8OioY63rYSA1VLtQznGpUxPjS93Y0UKmx67b9Tb6eGM0oSLiZPz1DOwRQs3/lLl5yolzrt6el7fOVnHuuh8OGUBifyan6fVKkCssGZ6rgWMYIiFiUf2cbM7aFo1xPOVJPTAtUFjA5/lUtmdGo3xO5qQptmfXXvMpqYOxUwWojMWv3fUPmYy1HraInDpy7iyEhGmF/bb/lsMXcgIfeQOaqFqqx8lCUWgNcReftNbtDefH2TaLlPjwGKEotl9dNn9BTR6vdFHqrsMmaQXx+2hUtGSz9BRTZO/rf5go8dCyefn72DXvfspveJi64QbCMndMOQLmfwOcvHHYzYsNachew4lHyBQeJr8svnLXfW63VfIGEtd1OOML38WSx7KvzIlWC9dWDts9J3PrlOeRmTohk4dmqPFoXRWFtKMkFEY+L3bNrofk07BDi51ywrLG6SGWimm8d0dzImFpv4vGtU/k+ikYCS5va+zahxMd95wj17eEg4FqMg2G/NT4VbvpoWvq3p7XE/jOufnbpswDys9h9YzPZiH5wBM0Uw/juS7ZrPV7BENvCofYU/yyXfZyLzv6bp86QbOsyyCxM8ELv9Nw5Tv7hwPfFY7sbYcdBZ95C0UsiFY57mXVbpOKRxGsoNBGvsTOiFyx69fVwFcSXw5A9vbJ90Xi4qICnnuBARZxk6Ch4No4EvBITGeL8tXYFbvtbzdQXr8/t9/tZ2bNtKksVHo0mhDHF/DwHHpAHrWFSVWxJajOXWj1ZcjfVjTeD44Rh4KYb0l+QizOJ7CEYPm91uciK3Y9NVxY+ZW7mbHoMlbM3H7Y1RDIW7L9qgLBI09NBlbSsxc0FM4VCsJqbVqxZ0flfQZoT/kH6TsnXwhRvxN6P5LNqKVFR134Mm5YxMQa/WlzVeKKPT+UdyO1CEroR+orhSRz5+Tv4L3vRuMiybBGswVJIVDaExtG5YHDsJwhOg5fNgXwJFuFib/Ja9Ld1dB/52F/QOnIR9B+TTUztP+yCNVtQHX/v9iK3Z8dEp8vv0AZnA6wZuRYs3dPOdKy5K2xCFMUELoZN1U1HcM+SsQHgO6TTyE61kdCl7+3oZYerNVWuZCQfQLQF2N1fwXdOwbCclA9OiqOPN9Cie1G+vTxYonf3HDVrs1e/XRXV/9dh50ei4hf2+MPKHxSlqIxoUMlfjl2+bu/LNcsVYm+u8Soc+mfNn9BCLEay/gE0vh5qCBnLz99rAiop7cwdJQm6glJ5Wx/J5c8WtFBSjcGeGCmYi5PI6JQZrhy90xsgdt9NFTPUSDc4+kLFaBydsPibS5m813jru1R6Uc/tmXAqN49qSsaFh9V0g5F7zVhFZ+b0YgiFC/ELt3ziXJ7UhMzAoIiiS4TyN036fN4GukKXPAFqIowoU+7+QsUR7G3GQ5viMt65Ny0GEFtYy4jn4heskdRzKDgu9ewT2PSqjCHSpAIcLznucFsYzsLLWhnhcy9k6/ECrrNn26vPiVkbFH+IQol/vH4pbtfdlerp7BSgrZtNUofnLh39t7DpyO2cwpwPwXvfRS3m0aVYrmCsyUnmEgofQ/w749etIc2aBHLGkg/BmvKnjglAJ+uuHIvZGOJvZHBq013NeTunjQLnGsjKGt4lE96tcfYb30/evF7/+BqE0/g3Y7aRU1Apqw+UD5wWDxn8mYUf54VDvMfA3xbD1YOr/Iugz8vReJcB/j/Er3wvUuVFNfgvl6gjfZzVxppAnNHTlqP6opjUM5CoRRdjakWWsNNJ5gcBFPLFVhn9MI9i91V7Rv4gQkgqcLSZpCi8knI/mzSU5Eo+2wuq57FG6A0ULUM8GGE0uZj0Qv3fYno5cZHsNyX2jTx/TjKDXb2X5t/g/6cmstUfTRKwO7wAgqeQqhQToWFOJyfv6efdH1QgNR+V9KTSjKJBd1DEUJWLJrWFXje3etObaNf18odhJ7LWsVoUnwx90Dzhj4pz2pYum9rpZ0JOGLfp0vwdQiRorSZB5ofhe2xQaegXNDDHjnRWsrXapEEQO+X/XjjEgJdbbCwPx/94eqt3IMTvxFOiJtzaZIUylAGPWQxEoY+xHZ99Ozq+Ln7fqomGKqncoUFbbna+WpiDwczguDIR8Y15vL6r6H2Pgl9HKT/tEXT9XXIexJkTCmMTcGXXJH9glnWytgF+9/xxWqCDszVXbm1E58MR/kXoLOL6AW52MEOhKdhIfUQEjOQlP+PCOQ3Q2fvV/lOVdzRidcz3sxkuJsqe9UNyQPgdF5u7fjP4WmpD0DSJ0NV0nt+hUYxFp0SMypHgyuhaGEX9oIiPKFJ687Q8v3YNzvUbgVWNV4o5mRxGcsZr0fCbHK+iMpd0veViqd8NmjNDf6boosyn7Uo0/QpyN5LuXUTO+DM3cS5GoSr5uxJIMbyOl7OntfK/hHfvx5MaTXF1ZvxokmzCYIp140/AuHY74VC4qtEj/N5q4ToIz15afDh9nHwT2zrAU0ssnfNtPUwlZ7gv53459WsYXWNX9rdqwC3g3Wyku7WRdW4vXTZSOGRiXgAv3yFdkwjXhGI49H5WKMAAAaFSURBVFcMmSq3RBhfDiFRLAvvsxNR2QcNXTzJv7xPPSCu/FA2BznYDoC8hL5r4XqgXsUpy68ddyzyeJdh8BeF4jyClTXwuBNvwjlwRxMrW8vnzNMiX+l+YkhfyGeoEhF1z6sr8GqGyVBhCecfmvAlJMsepR2WioYFjX8PHonaHoOBqswPGSsI5Ytg/Z2onXtJcmNrb469NxnGq9pk9K+bNEnT5FxUpX0S1d6nQyBOMKDKimhlyBP1vJa0/XkhnOShfEreFVm6f4X81xkRNuMtO8rq02eoO/DO8gphOReyHRNuiCT4qrwb1StXOdXUj9ubapzIXv60AlBuwHWd8k2UCEFwLA/9ho/fw7Tsx88eRCJT+JTCGY2gEBOgfw8PhXgDwwZn53xiHgf3OtXiYK7KGaxiiliBRj7D/hBZsp8cyEARVnde667jnYZtKy/YdKfu0X67fJorp3y4zw5eq5w48DTse1RfLaEgQ9jOwANRp3KNY39W2X0c4lsCxHnaOmQ/aYRWDbVzcOy1xG9on0pwFI1cTh6I4HG4jpAN2XTmgjvcz7oD71Amcze8WnyXwGcUR0CJh5/OBDiHIBkIWJExRrk86Y2DZtGVYrsmzn5qQYB40uC+KJEvhXSu54tWURPys/zMA++OxsOuO/Co8qUBmuOT+TmQQDyLmFJEyuaP5UHIDJZb96/RKlOFuSyCwRgICErYipONv+lZr2zZYpuOjuSoO/BLiLJRX7mYbeB7BIpZyoeqJ2l8SA9ZCEVFqJCTaYScP2Ocsf9ll0CMZkB1B97tjNSt6bRdz64zHE0XP9BrrRDYSyFlbUUh0ynh07t31AN0GtGYAQ+G0TSo6OcDxS/gzW37QNsoRaHfeiiU6b2AWFq9QB8T4Lu2OqpGWHG184x2cYytfg+Iqo/TEcQC/cSXosit4VN7z1Gq0w5Vj1inV9617hK/sMWGGYY1axcAOaTPx3hrnBI00jnyOzlXQjPaST5UKCjQKaLoI8MV5MZ1B969OfDus3fpocDWD5kc6lApNx6xE9ToOt+3Z2/0HMpgBgyLAss+RjNddC3CZHjyxTuqLb+bKQIgP2bAW0L+SVXM+AFdIVzWa3jzeEqHQYHlYk4WjAbUyxAYiNcU7cVuP1/GLaZzN0GWb4W02xuZWae2cW/M/AbVisPUAuDqeWr9gadYBY1YY2/QlwDRDgrbp/bCQNkC8niFkeRGMQUpz4urSpr2OEubp8M7+hxwXYQ6+yO1mHrImx2npBddhZ/q4YXqXvS4Q/xO32fib71VAKWemkBrtVN90FZ/K+WFhufMVZ7gBvvl7xvHlUxrGwJSE1SgrJr02VJLu+goI2PocfxLUcgiexRPfP5W9NO9b5a3DwMXKWjxFmZqeKiaXIA4zCw0cATuOQE1Jgm0FQN9Rd0nffchC+E7XULFkorvDM0D1xoZ+oJnGCDcK98OTUvP4XPQI7W7pr7g113incJNYNLbXXgmuYGH+WfQdSoFrHzgP9U8ahrqTiC/WrFPFkv98lcY443hxX124oMyT4ifD+R4FzN8RUk/Pd6EXgOHOk+fGE0V8+Ek9kCkGId7LxpKlvUMopDToK6outhvcsNEwR+eOMQeVqATm7EDanU96g686h0lKKh+RWNPskb5GaMbUkj7U+ldN8KCocCrzVg52QVx+j/IKTyKr19UEk65SvpRNuCDOV5aOWifaOvCcZgUu2wDre2jiCS93GNf/rnEKcWCfNGI8Bh+UuK8dhW0w91p5ZGaCzHnGw/aBj2gtW7gjw3wJKU4dL30UHGftlwN2LRS0NF9kOh3MbgteK7mBkuX62MnZm3m4AKOHd0Asuo3MjjLnSAatJt7UK07bUajTcddmOpF6dfkC/FPlIqsE3ZjXDGNdKT9dULug/YPAklCgQeT6I3cKPWy2/hf9r45VtJON627ji8D0ZdeVAlnKhcZZR61mii+8gqqfRch3/FsbEpIiHV6A76DFtXFCBMTN6osQzfxXEkNk/Suno+18MV702Oh291+jhnwjgTbD34g7eFSP1sN2Uzh+oNPwK7bGq5oqDx0W3ghsQIbB1dDqieRES/labuSs3rQUz2G0uq0PMU4sf+3own5+hnLmALvpwPvxzmqOsG2GVI+OzFZMrKXQF9dZISwDY6esEDaPwpDccBqN47PXD/WoI+pqnk/AA16j0pACy9E8eQpsRhL8gtIp7+mL8pcMZbqJWh//3z+GCDwvypXI0wBeOmHAAAAAElFTkSuQmCC;" parent="1" vertex="1">
          <mxGeometry x="646" y="493" width="54" height="59.17" as="geometry" />
        </mxCell>
        <mxCell id="Q538PQ-l56nIkoy9aGrn-41" style="edgeStyle=orthogonalEdgeStyle;rounded=0;orthogonalLoop=1;jettySize=auto;html=1;entryX=0.691;entryY=0.009;entryDx=0;entryDy=0;entryPerimeter=0;" parent="1" source="Q538PQ-l56nIkoy9aGrn-6" target="Q538PQ-l56nIkoy9aGrn-32" edge="1">
          <mxGeometry relative="1" as="geometry" />
        </mxCell>
        <mxCell id="Q538PQ-l56nIkoy9aGrn-42" value="reply json on&lt;br&gt;http://127.0.0.1:5000" style="edgeLabel;html=1;align=center;verticalAlign=middle;resizable=0;points=[];" parent="Q538PQ-l56nIkoy9aGrn-41" vertex="1" connectable="0">
          <mxGeometry x="-0.021" relative="1" as="geometry">
            <mxPoint as="offset" />
          </mxGeometry>
        </mxCell>
      </root>
    </mxGraphModel>
  </diagram>
</mxfile>
